<?xml version="1.0" encoding="UTF-8"?>
<svg version="1.1" xmlns="http://www.w3.org/2000/svg" width="512" height="512">
<path d="M0 0 C1.10900665 -0.01052147 1.10900665 -0.01052147 2.24041748 -0.02125549 C4.61086189 -0.03865277 6.98105661 -0.04510691 9.3515625 -0.046875 C10.56558746 -0.04788712 10.56558746 -0.04788712 11.80413818 -0.04891968 C23.47940626 -0.03342832 34.60234579 0.35382627 45.9765625 3.203125 C46.69295898 3.36941406 47.40935547 3.53570312 48.14746094 3.70703125 C71.44758091 9.14674798 92.42042848 19.96700106 109.9765625 36.203125 C110.75193359 36.91275391 110.75193359 36.91275391 111.54296875 37.63671875 C137.35108558 61.50437567 151.54040804 95.53614571 154.9765625 130.203125 C155.06118863 132.82422681 155.10802288 135.41693516 155.09681702 138.03662109 C155.09809865 139.15555866 155.09809865 139.15555866 155.09940618 140.29710102 C155.10104118 142.77361334 155.09557234 145.25005652 155.09008789 147.7265625 C155.08980556 149.51097105 155.08996464 151.29537972 155.0905304 153.07978821 C155.0908166 157.90768314 155.08494849 162.73555309 155.07795644 167.56344223 C155.07169342 172.61496605 155.07111677 177.66649048 155.06993103 182.71801758 C155.0668264 192.27652624 155.05862473 201.83502342 155.04858154 211.39352703 C155.03739342 222.27863086 155.03190315 233.16373524 155.02688611 244.04884338 C155.01644139 266.43361028 154.99885877 288.81836699 154.9765625 311.203125 C155.72408279 311.19623657 156.47160309 311.18934814 157.24177551 311.18225098 C158.22651352 311.17689331 159.21125153 311.17153564 160.22583008 311.16601562 C161.20022537 311.1591272 162.17462067 311.15223877 163.17854309 311.1451416 C179.55807427 311.48457487 196.15119194 320.38280402 207.9765625 331.203125 C208.65847656 331.79351562 209.34039062 332.38390625 210.04296875 332.9921875 C223.85846838 345.69920281 231.88178621 364.52112517 233.26171875 383.02734375 C233.51392511 393.52132154 233.51392511 393.52132154 229.9765625 398.203125 C226.45465829 401.64498495 223.56946964 401.58044907 218.75442696 401.58623505 C218.02223173 401.59119456 217.2900365 401.59615408 216.53565353 401.60126388 C214.06877098 401.61427351 211.60242495 401.60581855 209.13552856 401.59753418 C207.35443482 401.60242056 205.57334424 401.60860918 203.7922591 401.61599207 C198.88735293 401.63244697 193.98260691 401.6300624 189.07768273 401.6246171 C183.79195175 401.62195372 178.50626413 401.63646568 173.22055054 401.64871216 C162.86108695 401.66979776 152.50167929 401.67430522 142.14219679 401.67252427 C133.7241435 401.6712182 125.3061077 401.67501285 116.88805771 401.68244934 C114.46603644 401.68454847 112.04401517 401.68664607 109.6219939 401.68874216 C107.81389998 401.69030745 107.81389998 401.69030745 105.96927892 401.69190437 C83.15641652 401.71081941 60.34358626 401.70975268 37.53071927 401.70293504 C16.64809606 401.69735878 -4.23440448 401.71818632 -25.11699902 401.75129551 C-46.54446035 401.78500565 -67.97186288 401.80020417 -89.39935124 401.79557848 C-101.43517266 401.79333106 -113.47088072 401.79861669 -125.50667953 401.82347107 C-135.75311977 401.84444964 -145.99938448 401.84811044 -156.24583183 401.82917148 C-161.47595871 401.81999235 -166.70575802 401.81893714 -171.93585968 401.83952713 C-176.72141464 401.85815901 -181.50637198 401.85382148 -186.29190363 401.83098131 C-188.02539296 401.82677579 -189.75892742 401.83106072 -191.49236916 401.84457725 C-193.8455128 401.86167984 -196.19655618 401.8480884 -198.54961967 401.82674408 C-200.51141995 401.82715266 -200.51141995 401.82715266 -202.51285255 401.82756948 C-207.12144459 401.00781724 -208.73701628 399.4776908 -212.0234375 396.203125 C-216.3379837 387.57403259 -212.44135411 373.11694696 -209.75976562 364.34375 C-206.13295528 353.8000255 -200.54473507 344.42304112 -193.0234375 336.203125 C-192.43304688 335.52121094 -191.84265625 334.83929688 -191.234375 334.13671875 C-180.0431215 321.96920696 -162.48519402 312.9846667 -146.0234375 311.203125 C-144.09153875 311.16204175 -142.15884358 311.14955589 -140.2265625 311.1640625 C-138.75944824 311.17252197 -138.75944824 311.17252197 -137.26269531 311.18115234 C-136.52374023 311.18840332 -135.78478516 311.1956543 -135.0234375 311.203125 C-135.02620288 310.28781352 -135.02896826 309.37250204 -135.03181744 308.42945385 C-135.09828147 286.08270551 -135.14781697 263.73597439 -135.17887402 241.38914776 C-135.19429497 230.58206809 -135.21529245 219.77505469 -135.24975586 208.96801758 C-135.27980517 199.54060166 -135.29904711 190.11323377 -135.30570298 180.68577129 C-135.30958911 175.701273 -135.31862069 170.71691206 -135.34062767 165.73245811 C-135.36123919 161.02519918 -135.3672224 156.318132 -135.36276054 151.61083221 C-135.36357487 149.89820368 -135.36939177 148.18556761 -135.38105392 146.47297859 C-135.48161574 130.92097546 -133.79682985 115.59397289 -129.3359375 100.640625 C-129.08102539 99.77477783 -128.82611328 98.90893066 -128.56347656 98.0168457 C-117.96580212 63.35915829 -94.62444829 33.60425857 -62.5859375 16.390625 C-43.36678965 6.47889046 -21.72470464 0.13859334 0 0 Z M-82.0859375 63.390625 C-103.49638811 88.33358457 -111.58754842 120.26829867 -111.36401367 152.49462891 C-111.36309161 154.2689989 -111.36350034 156.04336999 -111.36510944 157.81773949 C-111.36577838 162.50954606 -111.34856956 167.20111653 -111.32727814 171.89286804 C-111.3100143 176.31815215 -111.30937917 180.74338289 -111.30725098 185.16870117 C-111.29159661 198.05520626 -111.24971285 210.94166874 -111.2109375 223.828125 C-111.1490625 252.661875 -111.0871875 281.495625 -111.0234375 311.203125 C-31.1634375 311.203125 48.6965625 311.203125 130.9765625 311.203125 C131.0384375 282.555 131.1003125 253.906875 131.1640625 224.390625 C131.19137451 215.37516357 131.21868652 206.35970215 131.24682617 197.07104492 C131.25686507 188.925638 131.25686507 188.925638 131.26289368 180.78022766 C131.26566665 177.17767185 131.27682027 173.57525129 131.29328918 169.97273254 C131.31411827 165.35408018 131.31999023 160.73561985 131.31577933 156.11692488 C131.3166577 154.43650914 131.32245581 152.75608553 131.33420789 151.07571065 C131.56477541 116.45341763 121.25232094 83.32372477 96.83984375 58.04296875 C78.40719514 39.52251576 56.36013414 29.87479245 30.9765625 25.203125 C29.92210937 25.00847656 28.86765625 24.81382812 27.78125 24.61328125 C-14.28690098 20.07821364 -52.91553589 32.26402288 -82.0859375 63.390625 Z M-178.8359375 357.515625 C-182.93140459 363.01830235 -187.0234375 370.21978461 -187.0234375 377.203125 C-57.0034375 377.203125 73.0165625 377.203125 206.9765625 377.203125 C203.81468337 362.97466892 196.93092582 352.07416522 184.64453125 343.91015625 C173.31017027 336.90306401 162.34549776 334.74424177 149.07324219 334.82217407 C147.83005596 334.8174941 146.58686974 334.81281413 145.3060112 334.80799234 C141.8900346 334.79816589 138.4745598 334.80160802 135.05861473 334.81095099 C131.36120334 334.81778108 127.66383359 334.80724078 123.96643066 334.79901123 C116.73695706 334.78571366 109.5075772 334.78853383 102.27810001 334.79724915 C96.39938148 334.80404101 90.52068911 334.80493594 84.64196777 334.8016777 C83.80334851 334.801218 82.96472925 334.80075831 82.10069728 334.80028468 C80.39673646 334.79932544 78.69277564 334.7983528 76.98881483 334.7973669 C61.03344576 334.78882466 45.0781285 334.79862881 29.12276793 334.814768 C15.45030893 334.82817012 1.77792637 334.8258417 -11.89453125 334.81201172 C-27.79516736 334.79593528 -43.69575812 334.78964852 -59.59640121 334.79884851 C-61.29388173 334.7998041 -62.99136225 334.80074721 -64.68884277 334.8016777 C-65.5239039 334.80214053 -66.35896502 334.80260336 -67.21933103 334.80308021 C-73.08686495 334.80566391 -78.95436997 334.80131251 -84.82189941 334.79423904 C-91.97836818 334.78580087 -99.13473831 334.78815269 -106.29119587 334.80408128 C-109.93830095 334.81193295 -113.58524193 334.81510903 -117.23234558 334.80513382 C-121.1950277 334.79445987 -125.15744463 334.8072566 -129.12011719 334.82217407 C-130.82968031 334.81213582 -130.82968031 334.81213582 -132.57378006 334.80189478 C-151.93087971 334.94270659 -166.47225872 342.77534273 -178.8359375 357.515625 Z " fill="#fffacd" transform="translate(246.0234375,110.796875)"/>
<path d="M0 0 C24.68751377 12.94011937 40.59437261 36.65369427 48.97265625 62.8059082 C53.64310808 78.19958056 57.96420944 96.48893673 55.59765625 112.6262207 C53.53455787 116.48036054 51.85551026 119.25351487 47.59765625 120.6262207 C43.81172406 121.28015444 40.16054857 121.46927465 36.71484375 119.6105957 C33.20162047 116.79322825 31.83524775 114.55843167 31.28808594 110.10864258 C31.19946289 109.11413086 31.11083984 108.11961914 31.01953125 107.0949707 C28.22898893 77.80489486 21.83695727 49.02417752 -1.375 28.7824707 C-5.82971821 25.60956173 -10.64004587 23.1845795 -15.6015625 20.89501953 C-19.27445185 19.12685508 -21.09892162 18.08342403 -23.40625 14.60668945 C-24.70778535 10.71229151 -24.67533834 7.48354769 -23.40234375 3.6262207 C-17.72199555 -5.83421532 -8.8847928 -4.32506323 0 0 Z " fill="#fffacd" transform="translate(301.40234375,169.373779296875)"/>
<path d="M0 0 C1.0714753 -0.0076664 1.0714753 -0.0076664 2.16459656 -0.01548767 C4.52135644 -0.02936584 6.8778233 -0.02842829 9.23461914 -0.02612305 C10.87602344 -0.03001093 12.51742674 -0.0343458 14.15882874 -0.03910828 C17.59778099 -0.04656664 21.03663058 -0.04628199 24.47558594 -0.04101562 C28.8784412 -0.03522119 33.28087575 -0.052153 37.68366146 -0.0753603 C41.07319081 -0.09010548 44.46261902 -0.09096829 47.85217476 -0.08785057 C49.47525427 -0.08836338 51.0983395 -0.09359358 52.72138786 -0.10366249 C54.99292061 -0.11602521 57.26363619 -0.10923692 59.53515625 -0.09765625 C60.82659042 -0.09828568 62.1180246 -0.0989151 63.44859314 -0.0995636 C67.94408727 0.39762018 70.5355807 1.90402917 73.61352539 5.1574707 C75.82959234 9.00717675 75.56872543 12.98432999 74.83227539 17.2746582 C72.93892802 20.89450624 70.7674127 22.96294577 66.83227539 24.2746582 C64.48801403 24.38489423 62.14072876 24.43374928 59.79394531 24.45166016 C59.08138077 24.45823135 58.36881622 24.46480255 57.63465881 24.47157288 C55.27735281 24.49127755 52.92011043 24.50296195 50.56274414 24.51293945 C49.3534899 24.51905274 49.3534899 24.51905274 48.11980629 24.52528954 C43.85298546 24.54613796 39.58619667 24.56044511 35.31933594 24.56982422 C30.9176068 24.58088767 26.51638331 24.61528995 22.11483288 24.65499592 C18.72527643 24.6811685 15.33584039 24.68951659 11.94619179 24.6931057 C10.32391252 24.69796982 8.70163857 24.70957895 7.07945824 24.72814369 C4.80549652 24.75255058 2.53284226 24.75156807 0.25878906 24.74462891 C-1.0334407 24.75049515 -2.32567047 24.75636139 -3.65705872 24.7624054 C-7.80737856 24.18578919 -9.93524501 22.89642177 -13.16772461 20.2746582 C-15.99655441 16.0314135 -15.82040462 12.25731291 -15.16772461 7.2746582 C-11.38530561 0.79051135 -7.17478426 0.02561293 0 0 Z " fill="#fffacd" transform="translate(437.167724609375,243.725341796875)"/>
<path d="M0 0 C0.71256454 -0.0065712 1.42512909 -0.0131424 2.1592865 -0.01991272 C4.5165925 -0.03961739 6.87383488 -0.0513018 9.23120117 -0.0612793 C10.44045541 -0.06739259 10.44045541 -0.06739259 11.67413902 -0.07362938 C15.94095986 -0.0944778 20.20774864 -0.10878495 24.47460938 -0.11816406 C28.87633852 -0.12922751 33.277562 -0.16362979 37.67911243 -0.20333576 C41.06866888 -0.22950834 44.45810492 -0.23785643 47.84775352 -0.24144554 C49.47003279 -0.24630967 51.09230674 -0.25791879 52.71448708 -0.27648354 C54.98844879 -0.30089043 57.26110305 -0.29990792 59.53515625 -0.29296875 C60.82738602 -0.29883499 62.11961578 -0.30470123 63.45100403 -0.31074524 C67.60132387 0.26587097 69.72919032 1.55523839 72.96166992 4.17700195 C75.79049972 8.42024665 75.61434993 12.19434724 74.96166992 17.17700195 C72.84349301 20.80816237 70.84512444 22.67542009 66.96166992 24.17700195 C63.70497131 24.43769836 63.70497131 24.43769836 59.79394531 24.45166016 C59.07962845 24.45677109 58.36531158 24.46188202 57.62934875 24.46714783 C55.27258887 24.481026 52.91612201 24.48008845 50.55932617 24.4777832 C48.91792187 24.48167109 47.27651857 24.48600595 45.63511658 24.49076843 C42.19616432 24.49822679 38.75731474 24.49794214 35.31835938 24.49267578 C30.91550412 24.48688135 26.51306956 24.50381315 22.11028385 24.52702045 C18.7207545 24.54176563 15.33132629 24.54262844 11.94177055 24.53951073 C10.31869104 24.54002354 8.69560581 24.54525374 7.07255745 24.55532265 C4.8010247 24.56768537 2.53030913 24.56089707 0.25878906 24.54931641 C-1.03264511 24.54994583 -2.32407928 24.55057526 -3.65464783 24.55122375 C-8.15014195 24.05403998 -10.74163539 22.54763099 -13.81958008 19.29418945 C-16.03564703 15.44448341 -15.77478012 11.46733017 -15.03833008 7.17700195 C-11.57886796 0.56293453 -6.94249132 0.05298577 0 0 Z " fill="#fffacd" transform="translate(15.038330078125,243.822998046875)"/>
<path d="M0 0 C3.61984803 1.89334737 5.68828756 4.06486269 7 8 C7.11023603 10.34426137 7.15909107 12.69154663 7.17700195 15.03833008 C7.18357315 15.75089462 7.19014435 16.46345917 7.19691467 17.19761658 C7.21661934 19.55492258 7.22830375 21.91216496 7.23828125 24.26953125 C7.24235678 25.07570074 7.2464323 25.88187023 7.25063133 26.7124691 C7.27147976 30.97928994 7.28578691 35.24607872 7.29516602 39.51293945 C7.30622946 43.91466859 7.34063174 48.31589208 7.38033772 52.71744251 C7.4065103 56.10699896 7.41485838 59.496435 7.41844749 62.8860836 C7.42331162 64.50836287 7.43492074 66.13063682 7.45348549 67.75281715 C7.47789238 70.02677887 7.47690987 72.29943313 7.4699707 74.57348633 C7.47877007 76.51183098 7.47877007 76.51183098 7.48774719 78.48933411 C6.91113099 82.63965395 5.62176357 84.7675204 3 88 C-1.2432447 90.8288298 -5.01734529 90.65268001 -10 90 C-13.63116041 87.88182309 -15.49841813 85.88345451 -17 82 C-17.26069641 78.74330139 -17.26069641 78.74330139 -17.2746582 74.83227539 C-17.27976913 74.11795853 -17.28488007 73.40364166 -17.29014587 72.66767883 C-17.30402404 70.31091895 -17.3030865 67.95445209 -17.30078125 65.59765625 C-17.30466914 63.95625195 -17.309004 62.31484865 -17.31376648 60.67344666 C-17.32122484 57.2344944 -17.32094019 53.79564481 -17.31567383 50.35668945 C-17.30987939 45.95383419 -17.3268112 41.55139964 -17.3500185 37.14861393 C-17.36476368 33.75908458 -17.36562649 30.36965637 -17.36250877 26.98010063 C-17.36302158 25.35702112 -17.36825178 23.73393589 -17.37832069 22.11088753 C-17.39068342 19.83935478 -17.38389512 17.5686392 -17.37231445 15.29711914 C-17.37294388 14.00568497 -17.3735733 12.71425079 -17.3742218 11.38368225 C-16.87703803 6.88818812 -15.37062904 4.29669469 -12.1171875 1.21875 C-8.26748145 -0.99731695 -4.29032822 -0.73645004 0 0 Z " fill="#fffacd" transform="translate(261,0)"/>
<path d="M0 0 C3.14527553 2.16915554 4.48385275 4.54493902 5.20703125 8.296875 C5.70604058 15.02769855 3.03898971 18.30857999 -1.1875 23.25 C-4.21986742 26.5489604 -7.36134624 29.7280383 -10.53125 32.89453125 C-11.41856812 33.78613449 -12.30588623 34.67773773 -13.22009277 35.59635925 C-15.56150402 37.94493908 -17.90794484 40.28835904 -20.25579834 42.63049316 C-22.16612909 44.54123111 -24.06712427 46.46112967 -25.96837616 48.38089466 C-28.25321646 50.6840548 -30.54909022 52.97616063 -32.84375 55.26953125 C-33.69078491 56.12577591 -34.53781982 56.98202057 -35.41052246 57.86421204 C-40.40210053 62.81697578 -44.45709466 66.78369933 -51.6875 67.6875 C-55.8690053 67.16481184 -57.94179937 65.89184935 -61.1875 63.25 C-63.23184593 60.1834811 -63.57738272 59.10950668 -63.75 55.5625 C-63.81316406 54.75425781 -63.87632812 53.94601563 -63.94140625 53.11328125 C-61.82758586 45.08514473 -52.21635086 38.08922308 -46.52734375 32.3515625 C-45.61924454 31.43539154 -44.71114532 30.51922058 -43.77552795 29.57528687 C-41.86728572 27.65215501 -39.95656174 25.73152253 -38.04467773 23.81201172 C-35.60304874 21.35923934 -33.17334459 18.8949868 -30.7459631 16.42812538 C-28.41091391 14.0606319 -26.06191298 11.70713915 -23.71484375 9.3515625 C-22.84907211 8.46828278 -21.98330048 7.58500305 -21.09129333 6.67495728 C-20.27346878 5.86005829 -19.45564423 5.0451593 -18.61303711 4.20556641 C-17.90134872 3.48801178 -17.18966034 2.77045715 -16.45640564 2.03115845 C-11.06387327 -2.20213994 -6.25909897 -2.14597679 0 0 Z " fill="#fffacd" transform="translate(444.1875,69.75)"/>
<path d="M0 0 C4.08037588 2.42616025 7.42845081 5.17649885 10.78027344 8.52148438 C11.67429871 9.40920532 12.56832397 10.29692627 13.48944092 11.21154785 C14.44634122 12.17202731 15.40297975 13.13276764 16.359375 14.09375 C17.35462786 15.08765371 18.35017728 16.08126053 19.3460083 17.07458496 C21.42355276 19.14919265 23.49746646 21.22734462 25.56884766 23.30810547 C28.22062931 25.97131062 30.88132999 28.62539536 33.54479599 31.27690887 C35.59875923 33.3236398 37.64792876 35.37511678 39.69568634 37.42805481 C40.6750039 38.40870352 41.65580102 39.38787704 42.63811493 40.36552429 C44.00935677 41.73167528 45.37349192 43.10494821 46.73730469 44.47851562 C47.5141864 45.25698853 48.29106812 46.03546143 49.0914917 46.83752441 C51.90633786 50.02694523 52.90446484 52.14018353 53.375 56.375 C52.93060645 60.67080432 51.70408706 62.67783589 49 66 C45.67499687 68.21666876 43.96276172 68.77137913 40 69 C30.27585046 66.11877051 23.2822375 57.45191274 16.265625 50.50390625 C15.46517761 49.71153061 14.66473022 48.91915497 13.84002686 48.10276794 C12.16125956 46.43774005 10.48397186 44.77121913 8.80810547 43.10327148 C7.09998603 41.40672644 5.38739505 39.71467183 3.67041016 38.02709961 C1.17141475 35.57081188 -1.31402874 33.10150436 -3.796875 30.62890625 C-4.56046326 29.88282608 -5.32405151 29.13674591 -6.11077881 28.36805725 C-11.31494073 23.14259084 -16 18.06605456 -16 10.3125 C-14.6888789 5.96941137 -12.86202865 3.34836557 -9.1875 0.6875 C-5.93315587 -0.33529387 -3.39535546 -0.35124367 0 0 Z " fill="#fffacd" transform="translate(81,71)"/>
</svg>
