<svg xmlns="http://www.w3.org/2000/svg" width="100" height="100" viewBox="0 0 100 100" id="meditation"><path fill="#ff69b4" d="M93.343,60.726A61.637,61.637,0,0,0,82.619,59.5c5.068-8.865-.577-24.342-.844-25.061a2.768,2.768,0,0,0-2.553-.911A54.865,54.865,0,0,0,66.343,40.1C65.317,35.154,61.879,23.87,51.3,18.464A1.491,1.491,0,0,0,50,18.44a1.491,1.491,0,0,0-1.3.024C38.121,23.87,34.683,35.154,33.657,40.1a54.865,54.865,0,0,0-12.879-6.57,1.49,1.49,0,0,0-.8-.019,1.494,1.494,0,0,0-1.751.93c-.267.719-5.912,16.2-.843,25.062A61.7,61.7,0,0,0,6.657,60.726,1.509,1.509,0,0,0,5.636,62.81C14.444,83.3,37.38,83.75,50,79.536c12.654,4.211,35.535,3.772,44.364-16.727A1.509,1.509,0,0,0,93.343,60.726ZM31,74.529c5.763,1.241,10.181,2.487,13.177,3.431-8.435,1.623-25.969,2.558-34.968-14.669,6.672-1.122,29.329-3.611,37.459,12.318A142.864,142.864,0,0,0,31.631,71.6,1.5,1.5,0,0,0,31,74.529Zm17.464-1.835a23.948,23.948,0,0,0-7.592-7.835c-7.479-5.248-9.858-11.438-9.693-11.367a1.5,1.5,0,0,0-2.887.817A20.359,20.359,0,0,0,32.339,61.1a47.408,47.408,0,0,0-11.273-1.608c-5.3-5.857-1.692-18.889-.422-22.848a52.092,52.092,0,0,1,12.892,6.86,1.491,1.491,0,0,0,.7.535C41.649,49.685,49.026,58.825,48.464,72.694ZM49.99,41.137a1.5,1.5,0,0,0-1.5,1.5V57.018A40.19,40.19,0,0,0,36.35,42.065c.521-3.136,3.2-15.507,13.65-20.892,10.446,5.385,13.129,17.756,13.65,20.892a40.182,40.182,0,0,0-12.16,15V42.637A1.5,1.5,0,0,0,49.99,41.137Zm15.771,2.9a1.491,1.491,0,0,0,.7-.535,52.039,52.039,0,0,1,12.893-6.86c1.272,3.957,4.887,16.982-.423,22.847A47.407,47.407,0,0,0,67.662,61.1a20.377,20.377,0,0,0,4.046-6.792,1.5,1.5,0,0,0-2.886-.818c.16-.068-2.19,6.09-9.692,11.366a23.931,23.931,0,0,0-7.594,7.837C50.975,58.825,58.352,49.685,65.761,44.041ZM55.838,77.955c2.995-.942,7.407-2.187,13.162-3.426a1.5,1.5,0,1,0-.631-2.933,142.864,142.864,0,0,0-15.037,4.013C61.463,59.68,84.121,62.169,90.79,63.291,81.809,80.48,64.281,79.567,55.838,77.955Z"></path></svg>