<?xml version="1.0" encoding="UTF-8"?>
<svg version="1.1" xmlns="http://www.w3.org/2000/svg" width="512" height="512">
<path d="M0 0 C1.1753833 -0.0103125 2.3507666 -0.020625 3.56176758 -0.03125 C19.34647223 0.12673968 33.68237194 4.21576026 48.5625 9 C71.29505121 16.29403138 90.79343424 19.11825851 114.0625 11.1875 C120.9131065 9.0104361 126.84090125 8.6488605 133.59765625 11.3515625 C138.69873514 14.15477221 142.29188577 17.94366408 144.3125 23.4375 C145.3128972 29.51070779 144.91111191 35.29776874 141.74609375 40.6640625 C131.9741572 52.75250717 111.74494859 55.38068088 97.3125 57.125 C78.79854459 58.59630772 62.57332101 55.28188337 44.3125 51.4375 C44.3125 77.5075 44.3125 103.5775 44.3125 130.4375 C48.6025 125.1575 52.8925 119.8775 57.3125 114.4375 C61.875 109.75 61.875 109.75 63.75390625 107.9609375 C65.47643785 106.34515883 65.47643785 106.34515883 67.3125 103.875 C70.27367346 100.26606984 73.72872083 97.41672068 77.3125 94.4375 C77.8271582 94.00518066 78.34181641 93.57286133 78.87207031 93.12744141 C107.58581433 69.11125931 142.15073661 52.03191558 174.67944336 33.7734375 C175.54061768 33.28875 176.40179199 32.8040625 177.2890625 32.3046875 C178.11688232 31.83885254 178.94470215 31.37301758 179.79760742 30.89306641 C183.2901781 28.87164068 186.70177295 26.72336139 190.10522461 24.55566406 C192.3125 23.4375 192.3125 23.4375 196.25 23.3125 C199.73616543 24.5931322 200.48626094 25.28116775 202.3125 28.4375 C203.16422798 33.37882261 203.17997728 38.42924556 203.3125 43.4375 C203.33441406 44.14374512 203.35632813 44.84999023 203.37890625 45.57763672 C204.77405459 97.20975144 197.02035902 154.57738218 174.3125 201.4375 C174.01633789 202.05206055 173.72017578 202.66662109 173.41503906 203.29980469 C155.08709487 240.67083024 117.00035771 265.98406579 78.62109375 279.484375 C73.54263814 281.21479559 68.44355749 282.87000757 63.3125 284.4375 C62.64323486 284.64286377 61.97396973 284.84822754 61.28442383 285.05981445 C56.28013159 286.54886426 51.85098582 287.47893008 46.875 285.4375 C44.91348938 282.9267664 44.81003421 280.96396872 44.8815918 277.828125 C45.78367106 272.82350169 48.785 268.69493831 51.4375 264.4375 C52.73613559 262.28543286 54.03430006 260.13308137 55.33203125 257.98046875 C55.99799316 256.88911621 56.66395508 255.79776367 57.35009766 254.67333984 C60.34306365 249.73818541 63.23127683 244.74374901 66.125 239.75 C70.9779163 231.4220711 75.84917451 223.10494099 80.72555542 214.79074097 C86.51090516 204.92671722 92.29397897 195.0613779 98.0625 185.1875 C98.62259766 184.23037109 99.18269531 183.27324219 99.75976562 182.28710938 C103.01589669 176.70914614 106.2024007 171.09822823 109.3125 165.4375 C108.58546875 166.28570312 107.8584375 167.13390625 107.109375 168.0078125 C102.828125 173.00260417 98.546875 177.99739583 94.265625 182.9921875 C93.77747314 183.56171143 93.28932129 184.13123535 92.78637695 184.71801758 C91.79538227 185.87415068 90.8043332 187.03023715 89.81323242 188.1862793 C87.32344673 191.09055795 84.83457462 193.99560928 82.34765625 196.90234375 C76.64522169 203.56518834 70.91864311 210.20621705 65.17041016 216.82958984 C59.52242892 223.34104268 53.91568688 229.88750398 48.3125 236.4375 C46.33387632 238.75046537 44.35478668 241.06302999 42.375 243.375 C41.64494751 244.22771484 41.64494751 244.22771484 40.90014648 245.09765625 C36.51647263 250.2118227 32.10293416 255.29993027 27.67602539 260.37670898 C25.4095428 262.98282504 23.19387611 265.58886903 21.0625 268.30859375 C18.67466469 271.21343805 17.77775971 271.38659511 13.9921875 271.80078125 C9.34596174 271.34207743 8.37763775 270.1640547 5.4375 266.625 C4.67695313 265.73167969 3.91640625 264.83835937 3.1328125 263.91796875 C1.54738944 261.98029545 -0.01185518 260.02526867 -1.56005859 258.05761719 C-7.25404468 250.91970161 -13.39503889 244.42048817 -19.87060547 237.99365234 C-21.56063242 236.31435572 -23.23967764 234.62461031 -24.91796875 232.93359375 C-31.52242107 226.32080011 -38.35383725 220.24637081 -45.6875 214.4375 C-48.09878362 212.43471619 -50.4879019 210.40651084 -52.875 208.375 C-53.44541016 207.89095703 -54.01582031 207.40691406 -54.60351562 206.90820312 C-55.96557818 205.75216684 -57.32665805 204.59497288 -58.6875 203.4375 C-55.4999707 208.3875455 -52.16445166 213.1542383 -48.5625 217.8125 C-38.05536043 231.73401994 -29.45824965 247.00053292 -20.95605469 262.19677734 C-19.86466832 264.12455719 -18.74598054 266.02923573 -17.6015625 267.92578125 C-14.407681 273.34638294 -12.55603959 277.10132171 -13.6875 283.4375 C-16.28120458 286.41545711 -18.89458258 286.83440216 -22.6875 287.4375 C-41.05783601 288.3764139 -59.93877247 288.75241066 -77.6875 283.4375 C-78.79448242 283.11604004 -78.79448242 283.11604004 -79.92382812 282.78808594 C-114.17031407 272.56769678 -137.38650677 246.74551994 -153.95117188 216.09960938 C-161.70750609 201.26949835 -167.6186776 185.12241836 -169.6875 168.4375 C-169.79707031 167.56480469 -169.90664062 166.69210937 -170.01953125 165.79296875 C-172.0774875 146.61281652 -171.64827844 120.70192185 -161.6875 103.4375 C-155.74396099 100.46573049 -148.48801893 103.04899743 -142.5625 104.9375 C-141.26324585 105.34234619 -141.26324585 105.34234619 -139.93774414 105.75537109 C-115.52678803 113.48160395 -92.13557699 123.39701659 -69.375 135.125 C-68.40457764 135.62281982 -67.43415527 136.12063965 -66.43432617 136.63354492 C-58.54739071 140.77864621 -51.12060425 145.54072614 -43.6875 150.4375 C-43.51622654 117.42651696 -44.00530104 84.44106809 -44.6875 51.4375 C-45.37263672 51.58372803 -46.05777344 51.72995605 -46.76367188 51.88061523 C-49.90422563 52.54885764 -53.04584306 53.21196426 -56.1875 53.875 C-57.26515625 54.10509766 -58.3428125 54.33519531 -59.453125 54.57226562 C-82.92068213 59.50903831 -112.93733258 59.45167983 -134.4375 47 C-139.21584122 43.58230751 -143.17301832 39.22006641 -144.6875 33.4375 C-145.16014161 27.57674401 -144.71588188 23.64253135 -141.6875 18.4375 C-137.38151408 13.66600209 -133.19641755 10.32006509 -126.6875 9.4375 C-119.51067718 9.36914931 -113.42869796 11.07301552 -106.71484375 13.44921875 C-86.00937665 20.20855188 -66.67889024 14.69966886 -46.75 8.4375 C-30.83060754 3.48403852 -16.77156702 0.12012634 0 0 Z M-46.5859375 23.76904297 C-59.28861416 27.78060712 -71.56839512 31.00599814 -85 30.875 C-86.07161377 30.87032715 -87.14322754 30.8656543 -88.24731445 30.86083984 C-98.69214668 30.66844533 -108.08914007 28.69233523 -117.9453125 25.32421875 C-121.07151368 24.31332464 -123.42274915 24.07474991 -126.6875 24.4375 C-128.73201019 25.48124022 -128.73201019 25.48124022 -129.6875 27.4375 C-129.91750198 29.96179495 -129.91750198 29.96179495 -128.6875 32.4375 C-123.91265941 36.2784601 -119.1455477 37.69144618 -113.25 39.125 C-112.42951172 39.33705078 -111.60902344 39.54910156 -110.76367188 39.76757812 C-93.18151397 44.21573779 -75.55049286 43.55190014 -58.02172852 39.21630859 C-50.75641906 37.45048284 -42.84586922 35.79147885 -35.6875 38.625 C-32.08752426 41.88747801 -30.80390488 44.50971172 -30.19335938 49.37597656 C-30.12331685 51.02609104 -30.07082344 52.67699882 -30.03125 54.328125 C-29.99874146 55.26674377 -29.96623291 56.20536255 -29.93273926 57.17242432 C-29.39892846 74.36981553 -29.33374704 91.58574364 -29.16143799 108.78961182 C-29.10982257 113.91590153 -29.05484603 119.04213497 -28.99562073 124.16834259 C-28.96973668 126.51974115 -28.94853297 128.87114816 -28.9276123 131.22259521 C-28.8914409 134.87878579 -28.82152019 138.53318873 -28.73284912 142.1884613 C-28.70138619 143.7488301 -28.68218364 145.30947548 -28.67266846 146.87013245 C-28.6560249 149.31738123 -28.60180032 151.76150364 -28.54101562 154.20800781 C-28.54422066 154.95168987 -28.54742569 155.69537193 -28.55072784 156.46158981 C-28.40684406 160.56984821 -27.73556364 162.84726512 -24.7911377 165.61312866 C-22.53731933 167.33574412 -20.35123669 168.98114936 -17.9375 170.4609375 C-12.78167391 173.88275227 -8.5804717 178.17063178 -4.25 182.5625 C-3.50564697 183.30306641 -2.76129395 184.04363281 -1.99438477 184.80664062 C2.86754009 189.72034026 7.19246609 194.88906775 11.3125 200.4375 C13.19269755 197.61720367 14.15942771 195.3429938 15.265625 192.16796875 C15.63816406 191.11287109 16.01070312 190.05777344 16.39453125 188.97070312 C17.15810905 186.78339748 17.92115236 184.59590516 18.68359375 182.40820312 C19.06128906 181.33892578 19.43898438 180.26964844 19.828125 179.16796875 C20.19775864 178.11059006 20.56739227 177.05321136 20.94822693 175.96379089 C22.3125 172.4375 22.3125 172.4375 23.83534241 169.6197052 C29.9842244 157.91054165 29.2129651 145.72371701 29.23046875 132.78125 C29.25659124 130.30453249 29.28572039 127.82784505 29.31770325 125.35119629 C29.39532088 118.86983389 29.44081172 112.38869547 29.47674561 105.90698242 C29.53767572 95.50632324 29.63813441 85.10614901 29.75713539 74.70600891 C29.79247319 71.0820702 29.80803861 67.4584278 29.82157898 63.83435059 C29.84156512 61.61547239 29.862186 59.39659978 29.88354492 57.17773438 C29.8820343 56.17401794 29.88052368 55.17030151 29.87896729 54.13616943 C29.94913591 48.82038543 30.31521635 45.02464117 33.3125 40.4375 C37.20550449 36.78780829 41.2313711 37.18954035 46.27587891 37.24169922 C51.16369675 37.55686483 55.75944561 38.76261329 60.5 39.9375 C81.26904864 44.61658999 107.03790662 45.168537 126.3125 34.4375 C128.86312666 32.39919749 128.86312666 32.39919749 130.3125 30.4375 C129.19395414 26.71135847 129.19395414 26.71135847 126.3125 24.4375 C119.41883608 24.7821832 113.23233023 26.48890985 106.64453125 28.5 C83.04988231 35.13858821 59.45121698 28.22412957 37.01049805 20.89770508 C7.4238672 11.25261826 -17.47411505 14.53877662 -46.5859375 23.76904297 Z M181.8984375 46.48046875 C180.75632812 47.13563477 179.61421875 47.79080078 178.4375 48.46582031 C177.18748396 49.18551902 175.93748436 49.90524627 174.6875 50.625 C172.11258864 52.10392767 169.53682465 53.58136644 166.9609375 55.05859375 C166.31171326 55.43114288 165.66248901 55.80369202 164.99359131 56.18753052 C160.05478352 59.01909198 155.09778615 61.81719717 150.13330078 64.60351562 C104.17745866 90.29628318 104.17745866 90.29628318 66.3125 126.4375 C65.508125 127.40429688 64.70375 128.37109375 63.875 129.3671875 C44.48562484 153.00215512 33.97228523 179.37289333 24.66015625 208.1484375 C24.45090012 208.79313995 24.24164398 209.43784241 24.02604675 210.1020813 C23.1393995 212.84176097 22.26838112 215.58380835 21.43701172 218.34082031 C19.62492681 224.22921546 19.62492681 224.22921546 16.3125 226.4375 C12.8984375 226.5234375 12.8984375 226.5234375 9.3125 225.4375 C7.47927714 222.91758497 6.24449595 220.83265408 4.9375 218.0625 C1.15094035 210.72237469 -3.17513742 204.62210192 -8.6875 198.4375 C-9.40679687 197.58671875 -10.12609375 196.7359375 -10.8671875 195.859375 C-16.25664948 189.60683192 -22.20311029 184.51910626 -28.6875 179.4375 C-29.44289063 178.80457031 -30.19828125 178.17164063 -30.9765625 177.51953125 C-57.18229325 155.68142229 -89.19831749 140.26763928 -120.8125 128 C-121.78367767 127.62243561 -121.78367767 127.62243561 -122.7744751 127.23724365 C-136.86665194 121.10714807 -136.86665194 121.10714807 -151.6875 118.4375 C-152.17194764 120.43622739 -152.6497766 122.43655937 -153.125 124.4375 C-153.39183594 125.55125 -153.65867187 126.665 -153.93359375 127.8125 C-157.4226571 144.58892898 -156.9438935 162.85060723 -152.6875 179.4375 C-152.51009277 180.13053223 -152.33268555 180.82356445 -152.14990234 181.53759766 C-145.51206006 206.19163613 -131.48981782 228.37144414 -113.6875 246.4375 C-112.97207031 247.16582031 -112.25664063 247.89414062 -111.51953125 248.64453125 C-97.33851544 262.13379019 -78.70757139 269.20722172 -59.6875 272.4375 C-58.94886719 272.56898438 -58.21023437 272.70046875 -57.44921875 272.8359375 C-53.69005286 273.37608949 -49.930181 273.47844746 -46.13671875 273.4921875 C-45.31526367 273.49516846 -44.49380859 273.49814941 -43.64746094 273.5012207 C-39.99383449 273.49945259 -36.34095428 273.47297043 -32.6875 273.4375 C-34.30280455 267.37001228 -37.48497272 262.33541319 -40.6875 257 C-41.27345947 256.01862061 -41.85941895 255.03724121 -42.46313477 254.02612305 C-54.27904022 234.36838695 -67.55184551 215.68568427 -82.6875 198.4375 C-83.29722656 197.72851562 -83.90695313 197.01953125 -84.53515625 196.2890625 C-93.75679967 185.60678052 -103.22270254 174.669853 -114.1875 165.75 C-116.82610959 163.47932402 -117.61872644 162.63235841 -118.8125 159.25 C-118.61002803 154.69438073 -118.61002803 154.69438073 -116.6875 152.4375 C-113.50766962 151.58687311 -111.43663636 151.17841858 -108.29296875 152.265625 C-107.49503906 152.73484375 -106.69710937 153.2040625 -105.875 153.6875 C-104.91980469 154.24824219 -103.96460938 154.80898438 -102.98046875 155.38671875 C-96.14996201 159.64059306 -89.38675426 163.9793327 -82.6875 168.4375 C-81.52541016 169.2102124 -81.52541016 169.2102124 -80.33984375 169.99853516 C-64.83198659 180.35520335 -49.98915124 191.46741344 -35.6875 203.4375 C-34.25083984 204.59572266 -34.25083984 204.59572266 -32.78515625 205.77734375 C-24.33774176 212.69053363 -16.60326168 220.30595043 -8.875 228 C-8.33929382 228.53052979 -7.80358765 229.06105957 -7.25164795 229.60766602 C-0.88409968 235.92669266 5.00209131 242.26838885 10.3815918 249.46850586 C11.0187915 250.11827393 11.65599121 250.76804199 12.3125 251.4375 C13.6325 251.4375 14.9525 251.4375 16.3125 251.4375 C18.44542531 249.38197001 18.44542531 249.38197001 20.4375 246.625 C23.60101158 242.57466797 26.81575708 238.71202157 30.3125 234.9375 C34.42628909 230.4676488 38.28337297 225.84705107 42.09765625 221.12109375 C44.97730887 217.63199084 48.01943876 214.30753079 51.06640625 210.96484375 C53.37437598 208.36787607 55.56805863 205.70345987 57.75 203 C61.60958603 198.22753797 65.68449991 193.70640891 69.83984375 189.19140625 C73.05959519 185.60542716 76.07155176 181.87048508 79.09765625 178.12109375 C81.97730887 174.63199084 85.01943876 171.30753079 88.06640625 167.96484375 C90.37437598 165.36787607 92.56805863 162.70345987 94.75 160 C98.60958603 155.22753797 102.68449991 150.70640891 106.83984375 146.19140625 C110.05959519 142.60542716 113.07155176 138.87048508 116.09765625 135.12109375 C118.97730887 131.63199084 122.01943876 128.30753079 125.06640625 124.96484375 C127.37437598 122.36787607 129.56805863 119.70345987 131.75 117 C135.60279965 112.23592948 139.66135472 107.71683979 143.828125 103.2265625 C147.14424714 99.50374614 150.13892865 95.55685376 153.109375 91.5546875 C155.833806 88.93652863 157.59014116 88.649629 161.3125 88.4375 C163.625 88.9375 163.625 88.9375 165.3125 90.4375 C166.51007052 94.10842025 166.80500529 96.18504475 165.37915039 99.81103516 C163.90516173 102.60293373 162.32477216 105.3005655 160.6875 108 C160.09573975 109.0094165 159.50397949 110.01883301 158.89428711 111.05883789 C157.05068617 114.19547426 155.18257177 117.31659208 153.3125 120.4375 C152.22070064 122.28791002 151.13077589 124.13942774 150.04296875 125.9921875 C147.90877394 129.62262059 145.764958 133.24708911 143.61328125 136.8671875 C140.23304282 142.56074841 136.8941896 148.27792831 133.5625 154 C128.32760266 162.98808122 123.07555081 171.96589095 117.8125 180.9375 C109.11105775 195.77205833 100.44332524 210.6261483 91.7890625 225.48828125 C84.01430632 238.83492819 76.18768508 252.14985739 68.3125 265.4375 C71.9748743 266.65829143 72.80207141 266.10654018 76.29296875 264.6640625 C77.28417725 264.25623535 78.27538574 263.8484082 79.29663086 263.42822266 C80.88229858 262.75218994 80.88229858 262.75218994 82.5 262.0625 C84.12723999 261.37293213 84.12723999 261.37293213 85.78735352 260.66943359 C105.14801158 252.31845311 123.12306699 241.16582522 138.3125 226.4375 C139.055 225.76847656 139.7975 225.09945312 140.5625 224.41015625 C172.77482608 194.37887309 181.17280858 139.84317572 186.3125 98.4375 C186.42964355 97.49986816 186.54678711 96.56223633 186.66748047 95.59619141 C188.73024011 78.24510328 188.52767634 60.87837028 188.3125 43.4375 C186.12736343 43.4375 183.69538358 45.44677828 181.8984375 46.48046875 Z " fill="#fffacd" transform="translate(239.6875,191.5625)"/>
<path d="M0 0 C8.42745249 5.86569846 14.08317226 13.46204552 16.63671875 23.50390625 C18.32212832 35.08430103 16.60226288 45.35425905 9.71484375 54.90234375 C2.98119115 63.13918076 -5.24091126 68.23633685 -15.94140625 69.4453125 C-27.46236444 69.98302123 -37.05709791 67.46818547 -45.99609375 59.984375 C-53.61738528 52.43736507 -57.31000016 43.37632738 -57.99609375 32.79296875 C-58.01074625 22.31643293 -53.87972509 12.31942322 -46.796875 4.59765625 C-33.86842475 -6.89742234 -14.81010604 -8.96179712 0 0 Z M-38 17 C-42.2564519 23.32837558 -44.4423342 29.386367 -43 37 C-40.60882 44.41485175 -36.76515408 49.17621726 -30 53 C-23.79856343 55.78431846 -18.37064904 55.68146467 -12 53.5 C-5.86720715 50.87299575 -1.74694652 46.58768882 1.1640625 40.609375 C3.10069877 34.56417393 3.05531587 27.45610058 0.4375 21.625 C-3.17534088 15.52753873 -8.39474049 11.62726743 -15.1015625 9.46875 C-23.17094771 7.47630921 -32.67677364 10.56905024 -38 17 Z " fill="#fffacd" transform="translate(260,115)"/>
<path d="M0 0 C1.96622017 1.78422392 2.89415788 3.27695336 3.28105164 5.91996765 C3.39793919 8.35775819 3.41559853 10.77818372 3.3984375 13.21875 C3.40274277 14.56108704 3.40274277 14.56108704 3.40713501 15.93054199 C3.4091739 17.82007481 3.40365629 19.70962881 3.39111328 21.59912109 C3.375057 24.48973835 3.39096776 27.37895743 3.41015625 30.26953125 C3.40817379 32.10677392 3.40433005 33.94401571 3.3984375 35.78125 C3.40754654 37.07669739 3.40754654 37.07669739 3.4168396 38.39831543 C3.34690603 44.37104428 3.34690603 44.37104428 1.59619141 47.54516602 C-0.38197457 49.34814721 -1.34992561 49.5127862 -4 49.4375 C-6.622731 49.30275419 -7.73485098 49.17961707 -9.9375 47.6875 C-12.49677607 43.62276741 -12.1613593 39.41083594 -12.16796875 34.7890625 C-12.17129715 33.98391205 -12.17462555 33.1787616 -12.17805481 32.34921265 C-12.18311568 30.6462257 -12.18546339 28.94322884 -12.18530273 27.24023438 C-12.18748592 24.64175969 -12.20564116 22.0437119 -12.22460938 19.4453125 C-12.22754417 17.78906395 -12.22952839 16.13281338 -12.23046875 14.4765625 C-12.23765427 13.70245026 -12.24483978 12.92833801 -12.25224304 12.13076782 C-12.23485712 8.00156863 -11.99959039 4.65983503 -10 1 C-6.89079391 -0.55460305 -3.36916972 -0.72720693 0 0 Z " fill="#fffacd" transform="translate(244,33)"/>
<path d="M0 0 C3.15625 1.40527344 3.15625 1.40527344 6.5 3.359375 C7.3981543 3.87785004 7.3981543 3.87785004 8.31445312 4.40679932 C10.21690662 5.50922797 12.10820504 6.62940105 14 7.75 C15.27016892 8.48812368 16.54099713 9.22511408 17.8125 9.9609375 C33.5600877 19.12017541 33.5600877 19.12017541 35 22 C35.38503376 25.54231061 35.41935959 27.36257342 33.4375 30.375 C30.09118426 32.60587716 27.97723128 32.31305298 24 32 C20.94555664 30.71826172 20.94555664 30.71826172 17.91015625 28.9296875 C16.79576172 28.28 15.68136719 27.6303125 14.53320312 26.9609375 C13.962229 26.61772461 13.39125488 26.27451172 12.80297852 25.92089844 C11.07858576 24.88466635 9.34283785 23.87030524 7.60351562 22.859375 C-6.53949933 14.52553603 -6.53949933 14.52553603 -10 11 C-10.75 7.375 -10.75 7.375 -10 4 C-7.17760823 -0.23358765 -4.89038261 -0.46177174 0 0 Z " fill="#fffacd" transform="translate(131,97)"/>
<path d="M0 0 C3.10948856 3.36232966 5.34165554 7.10338289 7.6015625 11.0703125 C8.25640625 12.21371094 8.91125 13.35710938 9.5859375 14.53515625 C10.26582095 15.73165951 10.94550649 16.92827525 11.625 18.125 C12.96972376 20.4827067 14.31685156 22.8390246 15.6640625 25.1953125 C16.25654785 26.23703613 16.8490332 27.27875977 17.45947266 28.35205078 C18.57683806 30.2726443 19.76746853 32.1512028 21 34 C21.42660463 37.91054241 21.58646281 40.12030578 19.375 43.4375 C16.24316508 45.49791771 14.68455227 45.6767545 11 45 C7.32338058 41.77217321 4.89295709 38.49293139 2.5546875 34.21875 C1.95269531 33.12949219 1.35070312 32.04023437 0.73046875 30.91796875 C0.11816406 29.79003906 -0.49414062 28.66210938 -1.125 27.5 C-2.35627947 25.26014649 -3.58803305 23.02055352 -4.8203125 20.78125 C-5.35930176 19.79189453 -5.89829102 18.80253906 -6.45361328 17.78320312 C-7.47868023 15.93827681 -8.55149197 14.11903064 -9.67138672 12.33007812 C-11.40363601 9.29211649 -11.51300363 7.44445292 -11 4 C-8.07075041 -0.45245938 -5.11843736 -0.822606 0 0 Z " fill="#fffacd" transform="translate(179,50)"/>
<path d="M0 0 C1.9375 1 1.9375 1 3 3 C4.30460345 11.37120549 0.02863764 17.11833078 -4.1875 24.0625 C-4.86936218 25.21850368 -5.54971333 26.37540003 -6.22851562 27.53320312 C-15.71935351 43.54262625 -15.71935351 43.54262625 -20.5 45.25 C-24 45 -24 45 -27 43 C-29.0814965 39.87775525 -29.3589819 38.79662767 -28.71289062 35.19873047 C-27.06308676 30.11032855 -24.00864479 25.61091333 -21.25 21.0625 C-20.62867188 20.01642578 -20.00734375 18.97035156 -19.3671875 17.89257812 C-17.59475819 14.91796311 -15.80099879 11.95738062 -14 9 C-13.50564453 8.17483887 -13.01128906 7.34967773 -12.50195312 6.49951172 C-8.78491024 0.37676157 -7.21831195 -0.50654821 0 0 Z " fill="#fffacd" transform="translate(308,50)"/>
<path d="M0 0 C3 1.1875 3 1.1875 5 3.4375 C6.17356282 6.66479776 6.22798466 7.99473987 5 11.1875 C2.13359939 14.45734126 -0.88812976 16.44972634 -4.68359375 18.53515625 C-5.77607422 19.14037109 -6.86855469 19.74558594 -7.99414062 20.36914062 C-9.13044922 20.98982422 -10.26675781 21.61050781 -11.4375 22.25 C-13.68649821 23.49034107 -15.9352068 24.73120747 -18.18359375 25.97265625 C-19.17931396 26.51801025 -20.17503418 27.06336426 -21.20092773 27.62524414 C-23.04286304 28.65328985 -24.8571599 29.73277781 -26.63696289 30.86499023 C-29.91431007 32.69920758 -32.30961611 32.59754265 -36 32.1875 C-38.42194927 30.65359879 -38.88729401 29.49341626 -39.875 26.8125 C-40.04055595 23.33582514 -39.00388215 22.00091362 -37 19.1875 C-34.81445312 17.52172852 -34.81445312 17.52172852 -32.28125 16.06640625 C-31.34796875 15.52306641 -30.4146875 14.97972656 -29.453125 14.41992188 C-27.99132812 13.59331055 -27.99132812 13.59331055 -26.5 12.75 C-25.55640625 12.20279297 -24.6128125 11.65558594 -23.640625 11.09179688 C-20.77185416 9.43598311 -17.88786584 7.80974117 -15 6.1875 C-13.9996875 5.61330322 -12.999375 5.03910645 -11.96875 4.44750977 C-10.999375 3.90022217 -10.03 3.35293457 -9.03125 2.7890625 C-8.16048828 2.2935791 -7.28972656 1.7980957 -6.39257812 1.28759766 C-4.0035284 0.18912234 -2.59827148 -0.19846026 0 0 Z " fill="#fffacd" transform="translate(353,96.8125)"/>
</svg>
